<?xml version="1.0" encoding="UTF-8" standalone="no"?>
<svg
   xmlns:dc="http://purl.org/dc/elements/1.1/"
   xmlns:cc="http://creativecommons.org/ns#"
   xmlns:rdf="http://www.w3.org/1999/02/22-rdf-syntax-ns#"
   xmlns:svg="http://www.w3.org/2000/svg"
   xmlns="http://www.w3.org/2000/svg"
   xmlns:xlink="http://www.w3.org/1999/xlink"
   xmlns:sodipodi="http://sodipodi.sourceforge.net/DTD/sodipodi-0.dtd"
   xmlns:inkscape="http://www.inkscape.org/namespaces/inkscape"
   version="1.1"
   id="svg833"
   width="341.33334"
   height="341.33334"
   viewBox="0 0 341.33334 341.33334"
   sodipodi:docname="InternetSymbolGreenSVG.svg"
   inkscape:version="1.0.2-2 (e86c870879, 2021-01-15)">
  <metadata
     id="metadata839">
    <rdf:RDF>
      <cc:Work
         rdf:about="">
        <dc:format>image/svg+xml</dc:format>
        <dc:type
           rdf:resource="http://purl.org/dc/dcmitype/StillImage" />
        <dc:title />
      </cc:Work>
    </rdf:RDF>
  </metadata>
  <defs
     id="defs837" />
  <sodipodi:namedview
     pagecolor="#ffffff"
     bordercolor="#666666"
     borderopacity="1"
     objecttolerance="10"
     gridtolerance="10"
     guidetolerance="10"
     inkscape:pageopacity="0"
     inkscape:pageshadow="2"
     inkscape:window-width="2560"
     inkscape:window-height="1377"
     id="namedview835"
     showgrid="false"
     inkscape:zoom="2.447379"
     inkscape:cx="342.48449"
     inkscape:cy="240.71701"
     inkscape:window-x="-8"
     inkscape:window-y="165"
     inkscape:window-maximized="1"
     inkscape:current-layer="g841"
     inkscape:document-rotation="0" />
  <g
     inkscape:groupmode="layer"
     inkscape:label="Image"
     id="g841">
    <ellipse
       style="fill:#ffffff;fill-opacity:1;stroke-width:42.4204;stroke-linecap:square;paint-order:stroke fill markers"
       id="path836"
       cx="173.56638"
       cy="173.56638"
       rx="147.37163"
       ry="149.7486" />
    <image
       sodipodi:absref="C:\Users\Niklas\OneDrive\Git\Internet Check\Internet Check\icons\System Tray\..\InternetSymbolPNG.png"
       xlink:href="..%5CInternetSymbolPNG.png"
       y="-66.224236"
       x="-668.43158"
       id="image843"
       preserveAspectRatio="none"
       height="341.33334"
       width="341.33334" />
    <path
       style="fill:#000000;stroke:#000000;stroke-width:1.33417;stroke-miterlimit:4;stroke-dasharray:none;stroke-opacity:1"
       d="M 156.66666,340.51636 C 105.30118,334.98623 60.270219,309.19166 31.943039,269.0724 11.460229,240.06297 0.86450925,206.52203 0.86450925,170.6928 c 0,-64.48206 35.09607975,-121.878223 92.46882975,-151.223593 48.388441,-24.75003 102.619441,-25.31278 151.333321,-1.57038 34.53037,16.82958 59.92917,41.64854 77.22358,75.46063 12.94427,25.307193 18.57859,48.760013 18.57859,77.333343 0,28.57335 -5.63432,52.02618 -18.57859,77.33335 -24.18301,47.27989 -67.90662,79.93309 -120.35527,89.88243 -11.46332,2.17454 -35.77034,3.5873 -44.86831,2.60778 z m 30.61943,-31.25373 c 14.29305,-5.34772 27.87184,-19.16144 37.91384,-38.56982 6.4021,-12.37347 12.59053,-29.41615 11.18302,-30.79759 -1.85077,-1.81648 -36.51649,-5.19988 -53.04962,-5.17768 -8.8,0.012 -21.7,0.61093 -28.66667,1.33137 -15.8256,1.63655 -42.46425,6.57104 -43.36805,8.03342 -0.3725,0.60272 0.82075,5.07574 2.65167,9.94005 16.45742,43.72334 45.54903,65.63661 73.33581,55.24025 z M 95.324379,283.02615 c -3.1962,-5.68335 -7.44847,-14.53334 -9.44947,-19.66667 -2.00101,-5.13332 -3.79565,-9.53753 -3.9881,-9.7871 -0.68029,-0.88223 -16.55347,6.836 -16.55347,8.049 0,2.33459 14.02697,16.0587 24.41539,23.88825 5.72847,4.31741 10.633991,7.84985 10.901161,7.84985 0.26718,0 -2.129301,-4.65 -5.325511,-10.33333 z m 171.063441,-5.16719 c 6.92295,-5.96719 20.27885,-21.0586 20.27885,-22.91395 0,-1.58392 -17.4811,-7.31644 -18.53362,-6.07767 -0.54151,0.63735 -2.6678,5.65881 -4.72508,11.15882 -2.05728,5.49999 -6.46536,15.07518 -9.79573,21.27823 l -6.05523,11.27822 5.88817,-4.32153 c 3.23849,-2.37684 9.06268,-7.05779 12.94264,-10.40212 z M 73.083999,220.22893 c -4.18123,-20.56743 -5.72234,-48.13891 -3.89706,-69.72071 0.89074,-10.53182 2.39267,-23.19154 3.33764,-28.13272 l 1.71812,-8.98397 -10.98083,-3.34937 c -6.03946,-1.84215 -11.58406,-3.34936 -12.32133,-3.34936 -1.95036,0 -10.69028,21.58043 -13.76976,34 -1.46655,5.91462 -2.97927,17.79473 -3.39553,26.66667 -1.10313,23.5118 2.75969,43.202 12.8343,65.42107 l 3.75589,8.28345 12.53189,-4.64949 12.53188,-4.64948 z m 233.578431,-4.1902 c 10.92554,-32.43192 8.25675,-70.26765 -7.28961,-103.34593 -7.25195,-15.430103 -6.61865,-15.054673 -17.91696,-10.62191 -9.06319,3.55582 -9.57224,3.97443 -8.75399,7.19863 4.97327,19.59619 7.91496,51.47244 6.69806,72.5803 -0.83698,14.51785 -3.52758,36.2416 -5.42507,43.80181 -0.72508,2.88898 0.0715,3.38326 11.62336,7.21295 l 12.40179,4.11144 3.02512,-6.59156 c 1.6638,-3.62535 4.2006,-10.08093 5.6373,-14.34573 z m -184.66244,4.76113 c 32.01832,-5.3644 73.6167,-5.95934 104,-1.48739 7.33334,1.07935 14.00612,1.98148 14.82842,2.00474 5.01813,0.1419 6.97265,-66.30995 2.68473,-91.2783 -1.25817,-7.3263 -2.73755,-13.7705 -3.28748,-14.32043 -0.54993,-0.54993 -3.07568,-0.40127 -5.61277,0.33036 -9.77374,2.8185 -41.51652,6.71573 -61.27956,7.52361 -13.29038,0.5433 -27.80503,0.21153 -40.66667,-0.92953 -31.09931,-2.75907 -27.65069,-3.76839 -29.78254,8.71655 -2.37237,13.89353 -2.61732,63.02504 -0.38555,77.33335 2.25522,14.45868 2.64975,15.56405 5.27562,14.78116 1.22419,-0.36499 7.6258,-1.56833 14.2258,-2.67412 z m 75.83568,-117.4067 c 8.70962,-1.03572 20.61488,-2.91575 26.45612,-4.177833 l 10.62044,-2.29468 -0.81446,-4.11392 c -1.36223,-6.88073 -13.5666,-30.30846 -20.00722,-38.4062 -22.9321,-28.83242 -51.25642,-31.32304 -75.27454,-6.61905 -4.84882,4.98727 -10.81433,12.44143 -13.25671,16.56481 -5.89036,9.94446 -13.65126,28.04177 -13.97054,32.57726 -0.23292,3.308883 0.27332,3.723893 5.74457,4.709303 21.36829,3.84852 56.4848,4.6164 80.50234,1.76031 z M 86.097279,76.692787 c 3.3035,-8.06667 6.39295,-15.53579 6.86544,-16.59804 1.50125,-3.37512 -7.80741,3.9688 -18.62938,14.69735 -5.68334,5.63427 -10.33334,10.81151 -10.33334,11.50499 0,1.37504 11.60825,5.64013 14.37879,5.28304 0.94167,-0.12137 4.41499,-6.82067 7.71849,-14.88734 z m 186.697891,7.13913 6.46748,-2.86087 -9.80627,-9.18586 c -14.66836,-13.74032 -15.33323,-13.7184 -9.28689,0.30618 2.84012,6.58773 5.16385,12.56802 5.16385,13.28955 0,1.74639 0.0227,1.74168 7.46183,-1.549 z"
       id="path845" />
    <g
       id="g869"
       transform="translate(-1111.5719,254.55844)">
      <ellipse
         style="fill:#ffffff;stroke:#8c8c8c;stroke-width:63.4799;stroke-linecap:square;stroke-miterlimit:4;stroke-dasharray:none;stroke-opacity:1;paint-order:stroke fill markers"
         id="use859"
         cx="610.16669"
         cy="230.66667"
         rx="138.63953"
         ry="138.90259" />
      <ellipse
         style="fill:#ffffff;stroke:#8c8c8c;stroke-width:59.9819;stroke-linecap:square;stroke-miterlimit:4;stroke-dasharray:none;stroke-opacity:1;paint-order:stroke fill markers"
         id="use861"
         cx="610.16669"
         cy="230.66667"
         rx="76.743279"
         ry="140.9312" />
    </g>
    <circle
       style="fill:#00bd0c;fill-opacity:0.84555984;stroke:none;stroke-width:46.6467;stroke-linecap:square;stroke-miterlimit:4;stroke-dasharray:none;stroke-dashoffset:0;stroke-opacity:1;paint-order:stroke fill markers"
       id="path921"
       cx="244.38866"
       cy="244.38866"
       r="96.944687" />
  </g>
</svg>
